# xmcd
#
# Track frame offsets: 
#        150
#        23111
#        35859
#        49028
#        60347
#        73700
#        86385
#        99713
#        112929
#        127059
#        137006
#        152199
#        166512
#        180720
#        191832
#        204900
#        215615
#        230626
#        241779
#        255894
#        267049
#        281402
#        294784
#        307140
#        319000
#
# Disc length: 4412 seconds
#
# Revision: 0
# Processed by: cddbd v1.4PL0 Copyright (c) Steve Scherf et al.
# Submitted via: ExactAudioCopy v0.95a1
#
DISCID=5d113a19
DTITLE=Various Artist - Risque Rhythm and Blues
DYEAR=1900
DGENRE=Blues
TTITLE0=Trenieres - Poontang - The Swallows - It Ain't The Meat It's T
TTITLE0=he Motion
TTITLE1=Barrelhouse Annie - If It Don't Fit Don't Force It
TTITLE2=Ernie Harris - Keep On Churning Till The Butter Comes
TTITLE3=Billy Ward and the Dominoes - 60 Minute Man
TTITLE4=Beau Carter - Don't Mash My Digger So Deep
TTITLE5=Bessie Smith - A Little Sugar In My Bowl
TTITLE6=Dinah Washington - Big Long Sliding Thing
TTITLE7=Beau Carter - My Pencil Won't Write No More
TTITLE8=Beau Carter - Banana In Your Fruitbasket
TTITLE9=Bullmoose Jackson - Big Ten-Inch Record
TTITLE10=Mississippi Shieks - Driving That Thing
TTITLE11=Mississippi Shieks - Bedspring Poker
TTITLE12=Dinah Washington - Long John
TTITLE13=Lloyd Price - Frog Legs
TTITLE14=Jesse Powell Orchestra - Walk Right In
TTITLE15=Harris - Wasn't that Good
TTITLE16=Roy Brown - Butcher Pete
TTITLE17=Lonnie Johnson - Wipe It Off
TTITLE18=Buddy Moss - Give Me Some Of It
TTITLE19=The Sultans - Lemon Squeezing Daddy
TTITLE20=Lil Johnson - Hot Nuts
TTITLE21=Hunter and Jacon - Lollipop
TTITLE22=Royals - Work With Me Annie
TTITLE23=Lucky Milander - Silent George
TTITLE24=Eddie Davis - Mountain Oysters
EXTD=
EXTT0=
EXTT1=
EXTT2=
EXTT3=
EXTT4=
EXTT5=
EXTT6=
EXTT7=
EXTT8=
EXTT9=
EXTT10=
EXTT11=
EXTT12=
EXTT13=
EXTT14=
EXTT15=
EXTT16=
EXTT17=
EXTT18=
EXTT19=
EXTT20=
EXTT21=
EXTT22=
EXTT23=
EXTT24=
PLAYORDER=
